<svg width="42" height="42" fill="none" xmlns="http://www.w3.org/2000/svg"><path d="M23.667 14h1.944c7.517 0 13.611 6.17 13.611 13.781v5.907c0 2.174-1.74 3.937-3.889 3.937H23.667C17.223 37.625 12 32.336 12 25.812c0-.95.11-1.874.32-2.76C13.548 17.86 18.162 14 23.667 14z" fill="url(#paint0_linear_34_82)"/><path d="M23.667 14h1.944c7.517 0 13.611 6.17 13.611 13.781v5.907c0 2.174-1.74 3.937-3.889 3.937H23.667C17.223 37.625 12 32.336 12 25.812c0-.95.11-1.874.32-2.76C13.548 17.86 18.162 14 23.667 14z" fill="#000" fill-opacity=".2"/><g filter="url(#filter0_b_34_82)"><path d="M19.056 5.25H17.11C9.594 5.25 3.5 11.42 3.5 19.031v5.907c0 2.174 1.741 3.937 3.889 3.937h11.667c6.443 0 11.666-5.289 11.666-11.813 0-.95-.11-1.874-.32-2.76C29.174 9.11 24.56 5.25 19.056 5.25z" fill="url(#paint1_linear_34_82)"/></g><defs><linearGradient id="paint0_linear_34_82" x1="25.611" y1="14" x2="25.611" y2="37.625" gradientUnits="userSpaceOnUse"><stop stop-color="#C678D4"/><stop offset="1" stop-color="#41397E"/></linearGradient><linearGradient id="paint1_linear_34_82" x1="17.111" y1="5.25" x2="17.111" y2="28.875" gradientUnits="userSpaceOnUse"><stop stop-color="#41397E"/><stop offset="1" stop-color="#EBEAFF"/></linearGradient><filter id="filter0_b_34_82" x="-2.5" y="-.75" width="39.222" height="35.625" filterUnits="userSpaceOnUse" color-interpolation-filters="sRGB"><feFlood flood-opacity="0" result="BackgroundImageFix"/><feGaussianBlur in="BackgroundImageFix" stdDeviation="3"/><feComposite in2="SourceAlpha" operator="in" result="effect1_backgroundBlur_34_82"/><feBlend in="SourceGraphic" in2="effect1_backgroundBlur_34_82" result="shape"/></filter></defs></svg>