<svg width="230" height="230" fill="none" xmlns="http://www.w3.org/2000/svg"><g filter="url(#filter0_d_25_573)"><path d="M102.037 76.34l34.908 14.699 4.606 34.977-30.302 22.66-32.24-13.496-4.903-37.132 27.931-21.707z" fill="url(#paint0_linear_25_573)"/><path d="M136.946 91.039l22.527-21.435 24.169 14.766 4.4 35.499-19.768 20.233-26.723-14.086-4.605-34.977z" fill="url(#paint1_linear_25_573)"/><path d="M102.037 76.34l2.531-29.396 34.589-3.289 20.316 25.95-22.528 21.434-34.908-14.698z" fill="url(#paint2_linear_25_573)"/><path d="M74.107 98.048l-25.013-7.01 3.854-27.717 27.726-21.844 23.895 5.467-2.531 29.397-27.931 21.707z" fill="url(#paint3_linear_25_573)"/><path d="M79.009 135.18l-22.505 13.496-18.126-27.719 10.716-29.918 25.012 7.009 4.903 37.132z" fill="url(#paint4_linear_25_573)"/><path d="M111.249 148.676l10.329 27.196 34.612-5.466 12.084-30.304-26.723-14.086-30.302 22.66z" fill="url(#paint5_linear_25_573)"/><path d="M56.505 148.676l10.716 24.746 32.674 13.655 21.683-11.205-10.328-27.196-32.24-13.497-22.505 13.497z" fill="url(#paint6_linear_25_573)"/><path d="M104.569 46.944l-23.895-5.467 9.53-8.642L121.58 30l24.442 5.194-6.863 8.461-34.589 3.289z" fill="url(#paint7_linear_25_573)"/><path d="M183.642 84.37l4.401-11.205-17.306-22.683-24.716-15.288-6.863 8.46 20.315 25.95 24.169 14.766z" fill="url(#paint8_linear_25_573)"/><path d="M188.042 119.869L196 128.08v-26.516l-7.958-28.399-4.4 11.206 4.4 35.498z" fill="url(#paint9_linear_25_573)"/><path d="M156.189 170.406l7.411 5.466 21.159-21.027L196 128.08l-7.958-8.211-19.768 20.233-12.085 30.304z" fill="url(#paint10_linear_25_573)"/><path d="M99.894 187.078L111.25 192l30.302-4.922 22.049-11.206-7.41-5.466-34.612 5.466-21.684 11.206z" fill="url(#paint11_linear_25_573)"/><path d="M67.22 173.423l-6.589-1.906-13.726-20.573L34 121.797l4.378-.84 18.126 27.719 10.717 24.747z" fill="url(#paint12_linear_25_573)"/><path d="M52.947 63.32l-5.768 2.745-8.801 25.95L34 121.796l4.378-.839 10.716-29.919 3.853-27.718z" fill="url(#paint13_linear_25_573)"/><path d="M60.632 171.517l7.137 3.289 31.83 13.179L111.25 192l-11.355-4.922-32.674-13.655-6.59-1.906z" fill="url(#paint14_linear_25_573)"/><path d="M47.178 66.066L81.722 38.46l8.482-5.626-9.531 8.642L52.947 63.32l-5.769 2.745z" fill="url(#paint15_linear_25_573)"/><path style="mix-blend-mode:color" d="M188.043 73.165l-17.306-22.683-24.716-15.288L121.578 30l-31.374 2.835-8.482 5.626L47.18 66.066l-8.801 25.949L34 121.797l12.905 29.147 13.726 20.574 7.137 3.289 31.83 13.178L111.249 192l30.303-4.922 22.048-11.205 21.159-21.027L196 128.08v-26.516l-7.957-28.399z" fill="url(#paint16_linear_25_573)"/></g><defs><linearGradient id="paint0_linear_25_573" x1="76.25" y1="114.697" x2="142.026" y2="109.93" gradientUnits="userSpaceOnUse"><stop offset=".09" stop-color="#FFF3C9"/><stop offset=".19" stop-color="#FFF0BB"/><stop offset=".38" stop-color="#FFE996"/><stop offset=".59" stop-color="#FFE066"/><stop offset=".66" stop-color="#FFDE5C"/><stop offset=".78" stop-color="#FFDA41"/><stop offset=".94" stop-color="#FFD315"/><stop offset="1" stop-color="#FFD001"/></linearGradient><linearGradient id="paint1_linear_25_573" x1="142.669" y1="76.726" x2="175.137" y2="123.588" gradientUnits="userSpaceOnUse"><stop offset=".3" stop-color="#BB8B1E"/><stop offset=".49" stop-color="#AC7C18"/><stop offset=".84" stop-color="#85540A"/><stop offset="1" stop-color="#713F02"/></linearGradient><linearGradient id="paint2_linear_25_573" x1="102.995" y1="77.543" x2="149.758" y2="54.76" gradientUnits="userSpaceOnUse"><stop offset=".3" stop-color="#D19D28"/><stop offset=".47" stop-color="#C28E21"/><stop offset=".79" stop-color="#9A660F"/><stop offset="1" stop-color="#7D4802"/></linearGradient><linearGradient id="paint3_linear_25_573" x1="65.762" y1="54.86" x2="88.8" y2="84.622" gradientUnits="userSpaceOnUse"><stop stop-color="#FFC02E"/><stop offset="1" stop-color="#A05C02"/></linearGradient><linearGradient id="paint4_linear_25_573" x1="60.244" y1="149.197" x2="56.272" y2="94.28" gradientUnits="userSpaceOnUse"><stop offset=".15" stop-color="#9D7419"/><stop offset=".68" stop-color="#7C510B"/><stop offset="1" stop-color="#663901"/></linearGradient><linearGradient id="paint5_linear_25_573" x1="111.249" y1="150.944" x2="168.274" y2="150.944" gradientUnits="userSpaceOnUse"><stop stop-color="#FFC02E"/><stop offset=".94" stop-color="#A05D02"/></linearGradient><linearGradient id="paint6_linear_25_573" x1="81.677" y1="180.023" x2="96.773" y2="143.29" gradientUnits="userSpaceOnUse"><stop stop-color="#FFC02E"/><stop offset=".23" stop-color="#EEAE26"/><stop offset=".69" stop-color="#C07F11"/><stop offset="1" stop-color="#9F5C02"/></linearGradient><linearGradient id="paint7_linear_25_573" x1="114.1" y1="45.696" x2="112.61" y2="30.906" gradientUnits="userSpaceOnUse"><stop offset=".23" stop-color="#E7B131"/><stop offset=".35" stop-color="#E0AA2E"/><stop offset=".54" stop-color="#CB9525"/><stop offset=".76" stop-color="#AA7416"/><stop offset="1" stop-color="#7D4802"/></linearGradient><linearGradient id="paint8_linear_25_573" x1="169.711" y1="41.59" x2="157.263" y2="76.223" gradientUnits="userSpaceOnUse"><stop offset=".08" stop-color="#C59626"/><stop offset="1" stop-color="#6B3E01"/></linearGradient><linearGradient id="paint9_linear_25_573" x1="196.342" y1="130.008" x2="185.144" y2="79.537" gradientUnits="userSpaceOnUse"><stop offset=".29" stop-color="#D6A731"/><stop offset="1" stop-color="#875102"/></linearGradient><linearGradient id="paint10_linear_25_573" x1="156.189" y1="147.882" x2="196" y2="147.882" gradientUnits="userSpaceOnUse"><stop offset=".03" stop-color="#603801"/><stop offset=".57" stop-color="#8B6515"/><stop offset=".86" stop-color="#9D771D"/></linearGradient><linearGradient id="paint11_linear_25_573" x1="129.946" y1="173.695" x2="133.671" y2="190.012" gradientUnits="userSpaceOnUse"><stop offset=".11" stop-color="#C79929"/><stop offset="1" stop-color="#774701"/></linearGradient><linearGradient id="paint12_linear_25_573" x1="44.032" y1="153.643" x2="56.604" y2="141.965" gradientUnits="userSpaceOnUse"><stop offset=".11" stop-color="#D0A531"/><stop offset="1" stop-color="#784D06"/></linearGradient><linearGradient id="paint13_linear_25_573" x1="34.342" y1="88.748" x2="48.138" y2="94.584" gradientUnits="userSpaceOnUse"><stop offset=".18" stop-color="#D5A832"/><stop offset="1" stop-color="#885504"/></linearGradient><linearGradient id="paint14_linear_25_573" x1="60.632" y1="181.747" x2="111.25" y2="181.747" gradientUnits="userSpaceOnUse"><stop stop-color="#CFA331"/><stop offset="1" stop-color="#7A4802"/></linearGradient><linearGradient id="paint15_linear_25_573" x1="65.442" y1="66.678" x2="71.017" y2="36.658" gradientUnits="userSpaceOnUse"><stop offset=".05" stop-color="#EAC044"/><stop offset="1" stop-color="#905C01"/></linearGradient><linearGradient id="paint16_linear_25_573" x1="53.632" y1="177.279" x2="168.428" y2="52.905" gradientUnits="userSpaceOnUse"><stop offset=".08" stop-color="#F1A3FF"/><stop offset=".19" stop-color="#E0AAFE"/><stop offset=".41" stop-color="#B4BCFC"/><stop offset=".71" stop-color="#6EDAF8"/><stop offset="1" stop-color="#25F8F4"/></linearGradient><filter id="filter0_d_25_573" x="0" y="0" width="230" height="230" filterUnits="userSpaceOnUse" color-interpolation-filters="sRGB"><feFlood flood-opacity="0" result="BackgroundImageFix"/><feColorMatrix in="SourceAlpha" values="0 0 0 0 0 0 0 0 0 0 0 0 0 0 0 0 0 0 127 0" result="hardAlpha"/><feOffset dy="4"/><feGaussianBlur stdDeviation="17"/><feComposite in2="hardAlpha" operator="out"/><feColorMatrix values="0 0 0 0 0.431373 0 0 0 0 0.854902 0 0 0 0 0.972549 0 0 0 0.2 0"/><feBlend in2="BackgroundImageFix" result="effect1_dropShadow_25_573"/><feBlend in="SourceGraphic" in2="effect1_dropShadow_25_573" result="shape"/></filter></defs></svg>