<svg width="42" height="42" fill="none" xmlns="http://www.w3.org/2000/svg"><path fill-rule="evenodd" clip-rule="evenodd" d="M21 2.188c.725 0 1.313.587 1.313 1.312v7a1.312 1.312 0 11-2.625 0v-7c0-.725.587-1.313 1.312-1.313z" fill="url(#paint0_linear_28_57)"/><path opacity=".4" d="M8.75 15.75a7 7 0 017-7h10.5a7 7 0 017 7v10.5c0 6.766-5.485 12.25-12.25 12.25S8.75 33.016 8.75 26.25v-10.5z" fill="url(#paint1_linear_28_57)"/><path fill-rule="evenodd" clip-rule="evenodd" d="M21 12.688c.725 0 1.313.587 1.313 1.312v3.5a1.312 1.312 0 11-2.625 0V14c0-.725.587-1.313 1.312-1.313z" fill="url(#paint2_linear_28_57)"/><defs><linearGradient id="paint0_linear_28_57" x1="21" y1="2.188" x2="21" y2="11.813" gradientUnits="userSpaceOnUse"><stop stop-color="#EBEAFF"/><stop offset="1" stop-color="#6EDAF8"/></linearGradient><linearGradient id="paint1_linear_28_57" x1="21" y1="8.75" x2="21" y2="38.5" gradientUnits="userSpaceOnUse"><stop stop-color="#EBEAFF"/><stop offset="1" stop-color="#6EDAF8"/></linearGradient><linearGradient id="paint2_linear_28_57" x1="21" y1="12.688" x2="21" y2="18.813" gradientUnits="userSpaceOnUse"><stop stop-color="#EBEAFF"/><stop offset="1" stop-color="#6EDAF8"/></linearGradient></defs></svg>