<svg width="24" height="24" fill="none" xmlns="http://www.w3.org/2000/svg"><path d="M16.773 8.288a.75.75 0 00-1.06-1.06l1.06 1.06zm-9.546 7.424a.75.75 0 001.06 1.061l-1.06-1.06zm8.485 1.061a.75.75 0 001.06-1.06l-1.06 1.06zM8.288 7.227a.75.75 0 00-1.061 1.06l1.06-1.06zm7.424 0l-8.485 8.485 1.06 1.061 8.486-8.485-1.06-1.06zm1.06 8.485L8.289 7.227l-1.061 1.06 8.485 8.486 1.06-1.06z" fill="url(#paint0_linear_49_261)"/><defs><linearGradient id="paint0_linear_49_261" x1="12" y1="7.757" x2="12" y2="16.243" gradientUnits="userSpaceOnUse"><stop stop-color="#EBEAFF"/><stop offset="1" stop-color="#6EDAF8"/></linearGradient></defs></svg>