<svg width="124" height="124" fill="none" xmlns="http://www.w3.org/2000/svg"><path d="M10.958 66.386a1 1 0 10-1.25 1.562l1.25-1.562zm17.595 15.357l-.625.78.625-.78zm14.136-1.157l-.743-.669.743.67zm40.72-43.75a1 1 0 00-1.486-1.338l1.487 1.338zm-41.451 29.55a1 1 0 10-1.25 1.562l1.25-1.562zm17.595 15.357l-.625.78.625-.78zm14.136-1.157l-.743-.669.743.67zm40.721-43.75a1 1 0 00-1.487-1.338l1.487 1.338zM9.709 67.948l18.22 14.575 1.249-1.561-18.22-14.576-1.25 1.562zm33.723 13.307l39.978-44.42-1.487-1.337-39.977 44.42 1.486 1.337zm-15.504 1.268a11.333 11.333 0 0015.504-1.268l-1.486-1.338a9.333 9.333 0 01-12.768 1.045l-1.25 1.561zm12.78-14.575l18.22 14.575 1.25-1.561-18.22-14.576-1.25 1.562zm33.724 13.307l39.978-44.42-1.487-1.337-39.977 44.42 1.486 1.337zm-15.504 1.268a11.333 11.333 0 0015.504-1.268l-1.486-1.338a9.333 9.333 0 01-12.768 1.045l-1.25 1.561z" fill="url(#paint0_linear_49_257)"/><defs><linearGradient id="paint0_linear_49_257" x1="62" y1="36.167" x2="62" y2="84.007" gradientUnits="userSpaceOnUse"><stop stop-color="#EBEAFF"/><stop offset="1" stop-color="#6EDAF8"/></linearGradient></defs></svg>