<svg width="36" height="36" fill="none" xmlns="http://www.w3.org/2000/svg"><path d="M13.799 25.36v-.906a.091.091 0 00-.082-.107 5.228 5.228 0 01-2.038-1.107 4.898 4.898 0 01-1.051-1.35 7.324 7.324 0 01-.745-2.337 17.114 17.114 0 01-.147-3.086c.01-.48.034-.956.09-1.436a8.67 8.67 0 01.689-2.65 4.59 4.59 0 012.318-2.333 9.632 9.632 0 012.213-.696c.749-.14 1.507-.227 2.268-.258a20.759 20.759 0 012.06.03c.98.04 1.952.202 2.893.48.698.198 1.362.5 1.97.894a4.204 4.204 0 011.391 1.585c.377.744.634 1.542.76 2.365.082.488.135.981.161 1.476.036.613.032 1.229.008 1.84-.023.61-.075 1.202-.151 1.8a6.635 6.635 0 01-.819 2.555 4.744 4.744 0 01-2.605 2.116 12.05 12.05 0 01-2.317.555c-.578.079-1.157.136-1.738.16-.445.02-.89.015-1.336.008-.252 0-.503-.025-.754-.047a.128.128 0 00-.13.055 61.823 61.823 0 01-1.563 1.775 1.477 1.477 0 01-.332.273.623.623 0 01-.935-.344 1.625 1.625 0 01-.077-.508l-.001-.803zm.613 1.145l.065-.06 1.15-1.266 1.328-1.462a.209.209 0 01.193-.085c.15.015.3.02.451.022.524 0 1.048 0 1.572-.037.475-.037.95-.094 1.42-.168.508-.088 1.01-.202 1.505-.343 1.103-.293 1.956-.922 2.492-1.939a5.703 5.703 0 00.586-1.999c.083-.656.134-1.316.15-1.977.024-.83-.033-1.661-.171-2.481a6.979 6.979 0 00-.513-1.723c-.311-.683-.752-1.248-1.432-1.611-1.041-.558-2.169-.806-3.33-.933a13.71 13.71 0 00-.99-.067 18.02 18.02 0 00-2.033.01c-.486.037-.97.101-1.45.195a7.28 7.28 0 00-2.021.683c-.369.184-.703.43-.99.725a4.546 4.546 0 00-.995 1.787 9.138 9.138 0 00-.368 2.373 17.82 17.82 0 00.03 2.412c.04.477.122.95.242 1.414a4.742 4.742 0 001.014 1.96 4.174 4.174 0 001.964 1.208c.095.029.138.061.138.168-.008.393 0 .787 0 1.18l-.007 2.014z" fill="#fff"/><path d="M13.447 14.309c-.01-.3.155-.516.353-.712.262-.248.55-.467.86-.654a.694.694 0 01.892.145c.375.39.71.816 1.002 1.271.144.205.253.432.322.672a.54.54 0 01-.138.538 4.897 4.897 0 01-.507.43.582.582 0 00-.2.61c.11.517.36.993.724 1.38.441.533 1.01.95 1.654 1.21.158.081.34.106.514.07a.472.472 0 00.242-.157c.097-.121.201-.239.288-.368a.76.76 0 011.042-.204c.467.269.908.58 1.318.929.096.082.197.16.293.244a.65.65 0 01.211.76c-.085.221-.21.427-.367.606a2.437 2.437 0 01-.731.666 1.026 1.026 0 01-.915.059 12.119 12.119 0 01-3.091-1.801 12.04 12.04 0 01-2.37-2.595 10.74 10.74 0 01-1.31-2.61 3.334 3.334 0 01-.083-.34.725.725 0 01-.002-.15zm4.759-1.453c.932.017 1.83.358 2.535.963a3.938 3.938 0 011.323 2.35c.06.331.093.667.097 1.004 0 .08-.02.137-.106.145-.086.008-.108-.064-.108-.137a4.537 4.537 0 00-.413-1.978 3.663 3.663 0 00-1.04-1.31 3.708 3.708 0 00-1.517-.718 4.103 4.103 0 00-.894-.104.31.31 0 01-.087-.01.096.096 0 01-.067-.115.087.087 0 01.09-.085c.061-.008.125-.005.187-.005z" fill="#fff"/><path d="M20.866 16.559a2.412 2.412 0 00-1.016-1.94 2.62 2.62 0 00-1.224-.454c-.074-.01-.149-.013-.224-.022-.076-.008-.122-.04-.115-.116.007-.076.055-.104.138-.098 1.221.074 2.26.758 2.58 2.032.058.245.088.497.087.75v.068c0 .068-.044.113-.112.112a.11.11 0 01-.106-.12c-.011-.063-.008-.129-.008-.212z" fill="#fff"/><path d="M18.727 15.038c.67.045 1.137.37 1.265 1.076.015.09.026.181.033.273 0 .074-.017.136-.098.136s-.109-.054-.112-.136c0-.27-.085-.535-.24-.757a1.023 1.023 0 00-.66-.366 1.491 1.491 0 00-.175-.021c-.096 0-.15-.048-.137-.122.012-.074.07-.087.124-.083z" fill="#fff"/></svg>