<svg width="36" height="36" fill="none" xmlns="http://www.w3.org/2000/svg"><path d="M9 26.334l1.292-4.802a8.88 8.88 0 012.397-11.403 8.918 8.918 0 0111.647.753 8.887 8.887 0 01.904 11.616 8.921 8.921 0 01-11.39 2.541L9 26.334zm5.085-3.092l.3.178a7.21 7.21 0 008.72-1.06 7.184 7.184 0 001.203-8.686 7.196 7.196 0 00-3.475-3.069 7.21 7.21 0 00-8.489 2.255 7.18 7.18 0 00-1.488 4.387 7.098 7.098 0 001.052 3.726l.189.31-.722 2.68 2.71-.72z" fill="#fff"/><path fill-rule="evenodd" clip-rule="evenodd" d="M21.365 18.48a1.487 1.487 0 00-1.27-.289c-.331.137-.545.655-.758.914a.315.315 0 01-.407.091 5.759 5.759 0 01-2.878-2.462.344.344 0 01.046-.477c.238-.235.413-.527.508-.848a1.845 1.845 0 00-.234-1.015 2.375 2.375 0 00-.737-1.111 1.017 1.017 0 00-1.093.167 2.245 2.245 0 00-.778 1.777c0 .188.025.375.071.558.118.439.3.857.54 1.244.172.295.36.582.564.857a8.662 8.662 0 002.445 2.264c.48.3.99.544 1.526.726a3.38 3.38 0 001.774.28 2.133 2.133 0 001.607-1.194 1.02 1.02 0 00.076-.609c-.091-.42-.656-.67-1.002-.873z" fill="#fff"/></svg>